<mxfile host="app.diagrams.net" modified="2024-02-17T08:58:04.733Z" agent="Mozilla/5.0 (Windows NT 10.0; Win64; x64) AppleWebKit/537.36 (KHTML, like Gecko) Chrome/121.0.0.0 Safari/537.36" version="23.1.5" etag="jG86alggOQPPBinTvbw3" type="github">
  <diagram name="Trang-1" id="z-yW6S6V3V22_ZjajXzz">
    <mxGraphModel>
      <root>
        <mxCell id="0" />
        <mxCell id="1" parent="0" />
      </root>
    </mxGraphModel>
  </diagram>
</mxfile>
